# xmcd CD database file
#
# Track frame offsets:
#	150
#	12872
#	30675
#	45804
#	60526
#	76797
#	87342
#	105382
#	123793
#	138823
#	159298
#
# Disc length: 2318 seconds
#
# Revision: 0
# Processed by: cddbd v1.5.2PL0 Copyright (c) Steve Scherf et al.
# Submitted via: CDex 1.70beta2
#
DISCID=6c090c0b
DTITLE=Clay Self - Dead Cowboy Songs
DYEAR=1998
DGENRE=Country
TTITLE0=Dead Cowboy Song
TTITLE1=Strawberry Roan
TTITLE2=Tyin' Knots
TTITLE3=Ridin' For The Brand
TTITLE4=Night Rider's Lament
TTITLE5=Choppo
TTITLE6=Devil's Canyon
TTITLE7=When The Works All Done
TTITLE8=The Blizzard
TTITLE9=Little Joe The Wrangler
TTITLE10=Master's Call
EXTD=YEAR: 1998
EXTT0=
EXTT1=
EXTT2=
EXTT3=
EXTT4=
EXTT5=
EXTT6=
EXTT7=
EXTT8=
EXTT9=
EXTT10=
PLAYORDER=
